<svg xmlns="http://www.w3.org/2000/svg" width="50" height="50" viewBox="0 0 50 50"><defs><style>.a{fill:#f8fbfd}</style></defs><path class="a" d="M29.553 14.699a.927.927 0 001.266.344l6.655-3.813a.927.927 0 001.681.091l.928-1.75v-.009a.965.965 0 00.045-.1v-.011a.873.873 0 00.028-.092l.007-.033q.008-.039.013-.078v-.029a.915.915 0 00-.006-.216v-.026a.836.836 0 00-.018-.083c0-.009 0-.018-.008-.028a.811.811 0 00-.033-.091l-.005-.013a.811.811 0 00-.045-.088l-.006-.009v-.008c0-.007-.009-.013-.013-.019a1.099 1.099 0 00-.046-.066l-.022-.027a.852.852 0 00-.057-.063l-.017-.017a.966.966 0 00-.084-.072l-.008-.005a.91.91 0 00-.082-.054L39.7 8.32a.725.725 0 00-.074-.036l-.025-.011a.926.926 0 00-.1-.034h-.011a.951.951 0 00-.1-.019h-.029c-.03 0-.06-.005-.091-.006h-2.24a.927.927 0 00-.7 1.535l-6.44 3.689a.927.927 0 00-.337 1.261zM44.898 37.25a3.481 3.481 0 00.905-2.344v-.847a3.5 3.5 0 00-3.494-3.494h-.039a3.5 3.5 0 00-3.494 3.494v.847a3.479 3.479 0 00.905 2.344 5.111 5.111 0 00-1.571 1.451 5.114 5.114 0 00-1.571-1.451 3.481 3.481 0 00.905-2.344v-.847a3.5 3.5 0 00-3.494-3.494h-.039a3.5 3.5 0 00-3.494 3.494v.847a3.481 3.481 0 00.905 2.344 5.11 5.11 0 00-1.571 1.451 5.115 5.115 0 00-1.571-1.451 3.48 3.48 0 00.905-2.344v-.847a3.5 3.5 0 00-3.494-3.494h-.039a3.5 3.5 0 00-3.494 3.494v.847a3.48 3.48 0 00.905 2.344 5.077 5.077 0 00-2.5 4.37v2.316a.928.928 0 00.928.928h25.076a.928.928 0 00.928-.928v-2.318a5.077 5.077 0 00-2.497-4.368zm-4.266-3.191a1.64 1.64 0 011.638-1.639h.039a1.641 1.641 0 011.638 1.639v.847a1.641 1.641 0 01-1.638 1.639h-.039a1.64 1.64 0 01-1.638-1.639zm-8.359 0a1.641 1.641 0 011.638-1.639h.039a1.641 1.641 0 011.638 1.639v.847a1.641 1.641 0 01-1.638 1.639h-.039a1.641 1.641 0 01-1.638-1.639zm-8.359 0a1.641 1.641 0 011.638-1.639h.039a1.64 1.64 0 011.639 1.639v.847a1.64 1.64 0 01-1.639 1.639h-.039a1.641 1.641 0 01-1.638-1.639zm-1.589 7.559a3.224 3.224 0 013.22-3.22h.063a3.224 3.224 0 013.217 3.22v1.389h-6.5zm8.359 0a3.224 3.224 0 013.22-3.22h.063a3.223 3.223 0 013.22 3.22v1.389h-6.5zm14.862 1.389h-6.5v-1.389a3.224 3.224 0 013.22-3.22h.063a3.223 3.223 0 013.22 3.22zm-8.8-15.235a.927.927 0 10-.656.272.936.936 0 00.656-.272zm0 0"/><path class="a" d="M49.023-.001H5.271a.977.977 0 00-.977.977v15.679L.388 23.166a2.751 2.751 0 00.213 3.127 2.72 2.72 0 002.135 1.025h.065a2.724 2.724 0 001.5-.482v.385a.977.977 0 00.977.977h3.086v18.481a3.319 3.319 0 005.664 2.349 3.319 3.319 0 005.664-2.349v-18.48h11.984a.977.977 0 100-1.953H19.692v-7.133l1.409 1.422a3.807 3.807 0 005.2.177l2.371-2.079a2.807 2.807 0 00.6-.753v3.736a.976.976 0 00.977.977h14.069a.977.977 0 00.977-.977V10.999a.977.977 0 00-.977-.977h-4.687a.976.976 0 00-.977.977v1.619h-3.711a.976.976 0 00-.977.977v2.254h-3.711a.971.971 0 00-.658.256 2.8 2.8 0 00-4.434-1.842l-1.007.736-2.522-2.529a8.284 8.284 0 00-3.9-2.209 4.843 4.843 0 001.163-3.151v-.511a4.873 4.873 0 00-3.418-4.645h32.568v24.29h-8.08a.977.977 0 100 1.953h9.056a.976.976 0 00.978-.978V.976a.976.976 0 00-.978-.977zm-8.416 11.976h2.734v8.665h-2.734zm-4.688 2.6h2.734v6.07H35.92zm-4.687 3.224h2.734v2.838h-2.734zM6.248 26.243V24.43l2.116-2.88v4.69H6.248zm10.124 21.8a1.369 1.369 0 01-1.371-1.364V31.543a.977.977 0 00-1.953 0v15.136a1.367 1.367 0 01-2.734 0V25.988h7.422v20.691a1.369 1.369 0 01-1.365 1.367zm6.994-31.068a.977.977 0 001.27.1l1.685-1.238a.852.852 0 011.067 1.328l-2.37 2.079a1.85 1.85 0 01-2.526-.086l-3.083-3.1a.977.977 0 00-1.669.689v7.289h-7.423v-5.465a.977.977 0 00-1.764-.578l-5.179 7.05a.783.783 0 01-.618.321h-.017a.782.782 0 01-.614-.294.791.791 0 01-.061-.9l5.61-9.35a5.883 5.883 0 015.02-2.842h.358v2.9a.977.977 0 001.953 0v-2.9h.726a6.342 6.342 0 014.521 1.876zM16.939 6.599v.518a2.914 2.914 0 01-2.855 2.91h-.113a2.914 2.914 0 01-2.855-2.91v-.518a2.911 2.911 0 115.822 0zm-7.776 0v.518a4.845 4.845 0 001.252 3.254 7.856 7.856 0 00-4.168 3.059V1.952h6.334a4.873 4.873 0 00-3.418 4.647zm0 0"/></svg>