<svg xmlns="http://www.w3.org/2000/svg" width="41.667" height="50" viewBox="0 0 41.667 50"><defs><style>.b{fill:#f8fbfd}</style></defs><g class="a"><path class="b" d="M2.5 50h36.667a2.455 2.455 0 002.5-2.5V5a2.455 2.455 0 00-2.5-2.5h-10a2.455 2.455 0 00-2.5-2.5H15a2.455 2.455 0 00-2.5 2.5h-10A2.455 2.455 0 000 5v42.5A2.455 2.455 0 002.5 50zM14.167 2.5A.787.787 0 0115 1.667h11.667a.787.787 0 01.833.833v4.167a.787.787 0 01-.833.833H15a.787.787 0 01-.833-.833zM1.667 5a.787.787 0 01.833-.833h10v2.5a2.455 2.455 0 002.5 2.5h11.667A2.427 2.427 0 0029 7.5h7.667v31.667h-5.834V45H5V7.5h5.833V5.833h-7.5v40.834H32l6.333-6.333V5.833h-9.166V4.167h10A.787.787 0 0140 5v42.5a.787.787 0 01-.833.833H2.5a.787.787 0 01-.833-.833zM35.5 40.833l-3 3v-3zm0 0"/><path class="b" d="M16.984 4.811h7.7v1.925h-7.7zM8.66 28.77h24.346v-15.4H8.66zm1.522-13.472h21.3v11.547h-21.3zm3.916-4.522H27.57V12.7H14.098zM7.311 29.011h6.736v1.924H7.311zm0 0"/><path class="b" d="M13.023 29.011h22.132v1.924H13.023zm-5.931 3.316h12.509v1.925H7.092zm0 0"/><path class="b" d="M18.406 32.327h16.358v1.925H18.406zM6.789 35.642h18.283v1.924H6.789zm0 0"/><path class="b" d="M23.909 35.642h10.585v1.924H23.909zM6.34 38.958h24.056v1.924H6.34zm0 0"/></g></svg>