<svg xmlns="http://www.w3.org/2000/svg" width="51.68" height="70.473" viewBox="0 0 51.68 70.473"><defs><style>.a{fill:#f8fbfd}</style></defs><path class="a" d="M0 0v64.6a5.88 5.88 0 005.873 5.873h39.934A5.88 5.88 0 0051.68 64.6V0zm49.331 64.6a3.524 3.524 0 01-3.524 3.524H5.873A3.524 3.524 0 012.349 64.6V14.095h46.982zm0-52.854H2.349v-9.4h46.982z"/><path class="a" d="M7.048 18.793v9.4h11.745v-9.4zm9.4 7.047H9.401v-4.7h7.047zm-9.4 16.444v9.4h11.745v-9.4zm9.4 7.047H9.401v-4.7h7.047zm-9.4 4.698v9.4h11.745v-9.4zm9.4 7.047H9.401v-4.7h7.047zm2.122-30.121a1.175 1.175 0 00-1.65-.19.928.928 0 00-.067.058l-6.9 5.909-.624-1.865a1.176 1.176 0 00-2.232.742l1.175 3.524a1.174 1.174 0 00.8.761 1.193 1.193 0 00.318.042 1.167 1.167 0 00.763-.283l8.222-7.047a1.175 1.175 0 00.195-1.651zm4.271-12.718h22v3h-22zm0 3.999h22v4h-22zm0 8h22v2h-22zm0 5.001h22v3h-22zm0 7.999h22v1h-22zm0 5.001h22v1h-22zm0 5.999h22v3h-22zm0 5h22v4h-22zM14.095 7.048H8.222a1.175 1.175 0 000 2.349h5.873a1.175 1.175 0 000-2.349zm29.363 0h-5.873a1.175 1.175 0 000 2.349h5.873a1.175 1.175 0 000-2.349z"/></svg>