<svg xmlns="http://www.w3.org/2000/svg"><defs><symbol id="icon-youtube" viewBox="0 0 32 32"><path d="M14.362 19.028l5.085-2.929-5.085-2.929z"/><path d="M25.674 20.814a2.456 2.456 0 01-1.704 1.717l-.017.004c-1.528.402-7.644.402-7.644.402s-6.098 0-7.642-.418a2.456 2.456 0 01-1.717-1.704l-.004-.017c-.403-1.512-.403-4.698-.403-4.698s0-3.17.403-4.698A2.505 2.505 0 018.65 9.669l.018-.004c1.528-.402 7.642-.402 7.642-.402s6.115 0 7.644.418c.84.233 1.488.881 1.717 1.704l.004.017c.419 1.528.403 4.714.403 4.714s0 3.17-.403 4.7zM16.309.468c-8.631 0-15.63 7-15.63 15.631s6.999 15.63 15.63 15.63c8.632 0 15.631-6.999 15.631-15.63S24.941.468 16.309.468z"/></symbol><symbol id="icon-soundcloud-logo" viewBox="0 0 32 32"><path d="M25.724 22.396h-9.255a.392.392 0 01-.361-.383V11.416c.002-.195.07-.295.321-.393a5.892 5.892 0 018 4.946l.002.023a3.338 3.338 0 014.629 3.078 3.325 3.325 0 01-3.325 3.324h-.013.001zm-9.93-.371v-.003a.372.372 0 01-.367.366.371.371 0 01-.369-.364l-.074-1.346-.076-1.383.15-7.482v-.038a.37.37 0 01.37-.367.374.374 0 01.367.366l.162 7.521zm-1.149-.236l-.014.274a.352.352 0 01-.104.243.343.343 0 01-.585-.241v-.001l-.131-2.772.13-6.828v-.066a.347.347 0 01.345-.342c.188.004.34.155.344.343l.145 6.895zm-1.183.293v-.002a.323.323 0 01-.642.004v-.001l-.143-2.788.143-5.795a.322.322 0 01.642-.002v.001l.161 5.795zm-1.159.018v-.002a.298.298 0 01-.596.001l-.159-2.806.157-6.014a.298.298 0 01.597 0l.178 6.014zm-1.15.024a.277.277 0 01-.276.273.276.276 0 01-.274-.271l-.171-2.833.171-6.172a.278.278 0 01.275-.274.277.277 0 01.275.274l.193 6.172zm-1.143.019v-.001a.253.253 0 01-.251.249.254.254 0 01-.252-.248l-.185-2.85.185-5.971a.254.254 0 01.251-.25c.136 0 .246.11.252.25l.209 5.97zm-1.149.044v-.001a.231.231 0 01-.229.226.231.231 0 01-.227-.225l-.199-2.88.198-5.511a.23.23 0 01.228-.227c.122 0 .224.099.23.227l.224 5.51zm-1.108.002a.211.211 0 01-.205.203.21.21 0 01-.206-.203l-.211-2.899.211-4.484a.21.21 0 01.206-.204.21.21 0 01.205.204l.241 4.484zm-1.116 0a.188.188 0 01-.182.179.185.185 0 01-.183-.178l-.225-2.899.225-2.756a.187.187 0 01.183-.18c.097 0 .175.077.182.179l.256 2.759zm-1.107-.024c-.008.088-.077.156-.159.156a.164.164 0 01-.16-.155l-.239-2.874.239-2.973a.165.165 0 01.16-.157c.083 0 .151.067.159.157l.271 2.972zm-1.097-.088c-.009.077-.066.132-.137.132-.072 0-.128-.055-.136-.134l-.254-2.786.254-2.892c.007-.077.064-.132.136-.132.071 0 .128.055.137.132l.287 2.892zm-1.09-.404c-.01.064-.056.11-.114.11s-.105-.047-.113-.11l-.267-2.383.267-2.439c.008-.063.055-.11.113-.11s.104.045.114.11l.302 2.439zm-1.008-.902c-.009.062-.054.105-.109.105s-.1-.044-.108-.106l-.199-1.482.199-1.507c.007-.062.052-.106.108-.106.055 0 .099.044.109.106l.235 1.508zM15.49.887C6.858.888-.14 7.887-.14 16.518c0 8.633 6.998 15.631 15.63 15.631s15.631-6.998 15.631-15.631c0-8.632-7-15.63-15.631-15.63z"/></symbol><symbol id="icon-facebook-logo-button" viewBox="0 0 32 32"><path d="M20.397 16.916h-2.542v9.064h-3.768v-9.065h-1.792v-3.203h1.792V11.64c0-1.484.705-3.802 3.802-3.802l2.792.011v3.11h-2.026c-.331 0-.799.166-.799.872v1.884h2.871zM16.51.733C7.892.734.88 7.747.88 16.366c0 8.618 7.012 15.63 15.63 15.63s15.631-7.012 15.631-15.63C32.141 7.747 25.13.735 16.51.735z"/></symbol></defs></svg>