<svg xmlns="http://www.w3.org/2000/svg"><defs><symbol id="icon-search" viewBox="0 0 34 32"><path d="M14.33 3.454c5.252 0 9.521 4.273 9.521 9.523s-4.271 9.521-9.521 9.521c-5.256-.006-9.514-4.265-9.521-9.52v-.001c0-5.252 4.271-9.523 9.521-9.523zm17.454 25.702l-7.593-7.898a12.772 12.772 0 003.023-8.277v-.006C27.205 5.864 21.442.102 14.332.094h-.001C7.219.102 1.456 5.865 1.448 12.976v.001C1.457 20.088 7.22 25.85 14.33 25.858h.034c2.753 0 5.302-.873 7.385-2.357l-.039.026 7.654 7.957a1.668 1.668 0 002.376.046 1.682 1.682 0 00.045-2.376l.001.001z"/></symbol></defs></svg>