<svg xmlns="http://www.w3.org/2000/svg"><defs><symbol id="icon-phone-book" viewBox="0 0 32 32"><path d="M15.334 16.389c1.985 0 2.459-1.618 2.459-2.976a2.46 2.46 0 00-4.918 0c0 1.358.653 2.976 2.459 2.976zm.343.341h-.685c-1.348 0-3.369 1.234-3.369 2.758s-.457 2.759.89 2.759h5.642c1.348 0 .89-1.235.89-2.759s-2.021-2.758-3.369-2.758z"/><path d="M24.476 24.009c0 .593-.482 1.074-1.075 1.074h-.291a2.14 2.14 0 00.291-1.075V8.324c0-.391-.107-.759-.291-1.075h.291c.594 0 1.075.482 1.075 1.075zm-2.15-1.076v1.075c0 .594-.482 1.075-1.076 1.075H10.496a2.151 2.151 0 01-2.15-2.15V9.399a2.15 2.15 0 012.15-2.15h10.755c.594 0 1.075.482 1.075 1.075v14.608zM16.006.423C7.419.424.458 7.386.458 15.974s6.961 15.549 15.548 15.549c8.588 0 15.55-6.962 15.55-15.549 0-8.589-6.962-15.55-15.55-15.55z"/></symbol></defs></svg>