<svg xmlns="http://www.w3.org/2000/svg" width="50" height="50" viewBox="0 0 50 50"><defs><style>.a{fill:#f8fbfd;}</style></defs><g transform="translate(8.345 5.811)"><path class="a" d="M323.934,43.119a.927.927,0,0,0,1.266.344l6.655-3.813a.927.927,0,0,0,1.681.091l.928-1.75,0-.009a.965.965,0,0,0,.045-.1l0-.011a.873.873,0,0,0,.028-.092l.007-.033q.008-.039.013-.078c0-.01,0-.019,0-.029a.915.915,0,0,0-.006-.216c0-.009,0-.017,0-.026a.836.836,0,0,0-.018-.083c0-.009,0-.018-.008-.028a.811.811,0,0,0-.033-.091l-.005-.013c-.013-.03-.028-.059-.045-.088l-.006-.009,0-.008c0-.007-.009-.013-.013-.019-.015-.023-.03-.045-.046-.066l-.022-.027c-.018-.022-.037-.043-.057-.063l-.017-.017a.966.966,0,0,0-.084-.072l-.008-.005a.91.91,0,0,0-.082-.054l-.026-.014a.725.725,0,0,0-.074-.036l-.025-.011a.926.926,0,0,0-.1-.034l-.011,0a.951.951,0,0,0-.1-.019l-.029,0c-.03,0-.06-.005-.091-.006h-2.24a.927.927,0,0,0-.7,1.535l-6.44,3.689A.927.927,0,0,0,323.934,43.119Zm0,0" transform="translate(-302.726 -34.231)"/><path class="a" d="M246.073,364.532a3.481,3.481,0,0,0,.905-2.344v-.847a3.5,3.5,0,0,0-3.494-3.494h-.039a3.5,3.5,0,0,0-3.494,3.494v.847a3.479,3.479,0,0,0,.905,2.344,5.111,5.111,0,0,0-1.571,1.451,5.114,5.114,0,0,0-1.571-1.451,3.481,3.481,0,0,0,.905-2.344v-.847a3.5,3.5,0,0,0-3.494-3.494h-.039a3.5,3.5,0,0,0-3.494,3.494v.847a3.481,3.481,0,0,0,.905,2.344,5.11,5.11,0,0,0-1.571,1.451,5.115,5.115,0,0,0-1.571-1.451,3.48,3.48,0,0,0,.905-2.344v-.847a3.5,3.5,0,0,0-3.494-3.494h-.039a3.5,3.5,0,0,0-3.494,3.494v.847a3.48,3.48,0,0,0,.905,2.344,5.077,5.077,0,0,0-2.5,4.37v2.316a.928.928,0,0,0,.928.928h25.076a.928.928,0,0,0,.928-.928V368.9A5.077,5.077,0,0,0,246.073,364.532Zm-4.266-3.191a1.64,1.64,0,0,1,1.638-1.639h.039a1.641,1.641,0,0,1,1.638,1.639v.847a1.641,1.641,0,0,1-1.638,1.639h-.039a1.64,1.64,0,0,1-1.638-1.639Zm-8.359,0a1.641,1.641,0,0,1,1.638-1.639h.039a1.641,1.641,0,0,1,1.638,1.639v.847a1.641,1.641,0,0,1-1.638,1.639h-.039a1.641,1.641,0,0,1-1.638-1.639Zm-8.359,0a1.641,1.641,0,0,1,1.638-1.639h.039a1.64,1.64,0,0,1,1.639,1.639v.847a1.64,1.64,0,0,1-1.639,1.639h-.039a1.641,1.641,0,0,1-1.638-1.639ZM223.5,368.9a3.224,3.224,0,0,1,3.22-3.22h.063A3.224,3.224,0,0,1,230,368.9v1.389h-6.5Zm8.359,0a3.224,3.224,0,0,1,3.22-3.22h.063a3.223,3.223,0,0,1,3.22,3.22v1.389h-6.5Zm14.862,1.389h-6.5V368.9a3.224,3.224,0,0,1,3.22-3.22h.063a3.223,3.223,0,0,1,3.22,3.22Zm0,0" transform="translate(-209.52 -333.093)"/><path class="a" d="M358.181,270.322a.927.927,0,1,0-.656.272A.936.936,0,0,0,358.181,270.322Zm0,0" transform="translate(-329.78 -248.361)"/><path class="a" d="M49.022,0H5.27a.977.977,0,0,0-.977.977V16.656L.387,23.167A2.751,2.751,0,0,0,.6,26.294a2.72,2.72,0,0,0,2.135,1.025H2.8a2.724,2.724,0,0,0,1.5-.482v.385a.977.977,0,0,0,.977.977H8.363V46.68a3.319,3.319,0,0,0,5.664,2.349,3.319,3.319,0,0,0,5.664-2.349V28.2H31.675a.977.977,0,1,0,0-1.953H19.691V25.013c0-.007,0-.014,0-.021V19.114L21.1,20.536a3.807,3.807,0,0,0,5.2.177l2.371-2.079a2.807,2.807,0,0,0,.6-.753v3.736a.976.976,0,0,0,.977.977H44.317a.977.977,0,0,0,.977-.977V11a.977.977,0,0,0-.977-.977H39.63a.976.976,0,0,0-.977.977v1.619H34.942a.976.976,0,0,0-.977.977V15.85H30.254a.971.971,0,0,0-.658.256,2.8,2.8,0,0,0-4.434-1.842L24.155,15l-2.522-2.529a8.284,8.284,0,0,0-3.9-2.209,4.843,4.843,0,0,0,1.163-3.151V6.6a4.873,4.873,0,0,0-3.418-4.645H48.046v24.29H39.966a.977.977,0,1,0,0,1.953h9.056A.976.976,0,0,0,50,27.22V.977A.976.976,0,0,0,49.022,0ZM40.606,11.976h2.734v8.665H40.606Zm-4.688,2.6h2.734v6.07H35.919ZM31.231,17.8h2.734v2.838H31.231ZM6.247,26.244V24.431l2.116-2.88V25s0,.006,0,.01v1.231H6.247Zm10.124,21.8A1.369,1.369,0,0,1,15,46.68V31.544a.977.977,0,0,0-1.953,0V46.68a1.367,1.367,0,0,1-2.734,0V25.989h7.422V46.68A1.369,1.369,0,0,1,16.37,48.047Zm6.994-31.068a.977.977,0,0,0,1.27.1l1.685-1.238a.852.852,0,0,1,1.067,1.328l-2.37,2.079a1.85,1.85,0,0,1-2.526-.086l-3.083-3.1a.977.977,0,0,0-1.669.689v7.289H10.316V18.572a.977.977,0,0,0-1.764-.578l-5.179,7.05a.783.783,0,0,1-.618.321H2.738a.782.782,0,0,1-.614-.294.791.791,0,0,1-.061-.9l5.61-9.35a5.883,5.883,0,0,1,5.02-2.842h.358v2.9a.977.977,0,0,0,1.953,0v-2.9h.726a6.342,6.342,0,0,1,4.521,1.876ZM16.938,6.6v.518a2.914,2.914,0,0,1-2.855,2.91H13.97a2.914,2.914,0,0,1-2.855-2.91V6.6a2.911,2.911,0,1,1,5.822,0Zm-7.776,0v.518a4.845,4.845,0,0,0,1.252,3.254,7.856,7.856,0,0,0-4.168,3.059V1.953H12.58A4.873,4.873,0,0,0,9.162,6.6Zm0,0" transform="translate(-8.344 -5.812)"/></g></svg>