<svg xmlns="http://www.w3.org/2000/svg" width="41.667" height="50" viewBox="0 0 41.667 50"><defs><style>.b{fill: #f8fbfd;}</style></defs><g class="a" transform="translate(0 0)"><path class="b" d="M2.5,50H39.167a2.455,2.455,0,0,0,2.5-2.5V5a2.455,2.455,0,0,0-2.5-2.5h-10a2.455,2.455,0,0,0-2.5-2.5H15a2.455,2.455,0,0,0-2.5,2.5H2.5A2.455,2.455,0,0,0,0,5V47.5A2.455,2.455,0,0,0,2.5,50ZM14.167,2.5A.787.787,0,0,1,15,1.667H26.667A.787.787,0,0,1,27.5,2.5V6.667a.787.787,0,0,1-.833.833H15a.787.787,0,0,1-.833-.833ZM1.667,5A.787.787,0,0,1,2.5,4.167h10v2.5a2.455,2.455,0,0,0,2.5,2.5H26.667A2.427,2.427,0,0,0,29,7.5h7.667V39.167H30.833V45H5V7.5h5.833V5.833h-7.5V46.667H32l6.333-6.333V5.833H29.167V4.167h10A.787.787,0,0,1,40,5V47.5a.787.787,0,0,1-.833.833H2.5a.787.787,0,0,1-.833-.833ZM35.5,40.833l-3,3v-3Zm0,0"/><path class="b" d="M168,40h7.7v1.925H168Zm0,0" transform="translate(-151.016 -35.189)"/><path class="b" d="M72,151.4H96.346V136H72Zm1.522-13.472h21.3v11.547h-21.3Zm0,0" transform="translate(-63.34 -122.63)"/><path class="b" d="M144,104h13.472v1.924H144Zm0,0" transform="translate(-129.902 -93.224)"/><path class="b" d="M72,280h6.736v1.924H72Zm0,0" transform="translate(-64.689 -250.989)"/><path class="b" d="M144,280h22.132v1.924H144Zm0,0" transform="translate(-130.977 -250.989)"/><path class="b" d="M72,312H84.509v1.925H72Zm0,0" transform="translate(-64.908 -279.673)"/><path class="b" d="M192,312h16.358v1.925H192Zm0,0" transform="translate(-173.594 -279.673)"/><path class="b" d="M72,344H90.283v1.924H72Zm0,0" transform="translate(-65.211 -308.358)"/><path class="b" d="M240,344h10.585v1.924H240Zm0,0" transform="translate(-216.091 -308.358)"/><path class="b" d="M72,376H96.056v1.924H72Zm0,0" transform="translate(-65.66 -337.042)"/></g></svg>