<svg xmlns="http://www.w3.org/2000/svg" width="51.68" height="70.473" viewBox="0 0 51.68 70.473"><defs><style>.a{fill:#f8fbfd;}</style></defs><g transform="translate(6.294 137.219)"><g transform="translate(-6.294 -137.219)"><g transform="translate(0)"><path class="a" d="M64,0V64.6a5.88,5.88,0,0,0,5.873,5.873h39.934A5.88,5.88,0,0,0,115.68,64.6V0Zm49.331,64.6a3.524,3.524,0,0,1-3.524,3.524H69.873A3.524,3.524,0,0,1,66.349,64.6V14.095h46.982Zm0-52.854H66.349v-9.4h46.982Z" transform="translate(-64)"/></g></g><g transform="translate(0.754 -118.426)"><g transform="translate(0)"><path class="a" d="M112,128v9.4h11.745V128Zm9.4,7.047h-7.047v-4.7H121.4Z" transform="translate(-112 -128)"/></g></g><g transform="translate(0.754 -94.935)"><g transform="translate(0)"><path class="a" d="M112,288v9.4h11.745V288Zm9.4,7.047h-7.047v-4.7H121.4Z" transform="translate(-112 -288)"/></g></g><g transform="translate(0.754 -83.19)"><g transform="translate(0)"><path class="a" d="M112,368v9.4h11.745V368Zm9.4,7.047h-7.047v-4.7H121.4Z" transform="translate(-112 -368)"/></g></g><g transform="translate(0.749 -106.709)"><g transform="translate(0)"><path class="a" d="M123.5,208.249a1.175,1.175,0,0,0-1.65-.19c-.023.018-.046.038-.067.058l-6.9,5.909-.624-1.865a1.176,1.176,0,0,0-2.232.742l1.175,3.524a1.174,1.174,0,0,0,.8.761,1.193,1.193,0,0,0,.318.042,1.167,1.167,0,0,0,.763-.283l8.222-7.047A1.175,1.175,0,0,0,123.5,208.249Z" transform="translate(-111.973 -207.804)"/></g></g><g transform="translate(17.046 -118.653)"><g transform="translate(0 0)"><rect class="a" width="22" height="3" transform="translate(-0.499 -0.329)"/></g></g><g transform="translate(17.046 -114.486)"><g transform="translate(0 0)"><rect class="a" width="22" height="4" transform="translate(-0.499 -0.497)"/></g></g><g transform="translate(17.046 -106.984)"><g transform="translate(0 0)"><rect class="a" width="22" height="2" transform="translate(-0.499 0.001)"/></g></g><g transform="translate(17.046 -101.982)"><g transform="translate(0 0)"><rect class="a" width="22" height="3" transform="translate(-0.499 0)"/></g></g><g transform="translate(17.046 -94.481)"><g transform="translate(0 0)"><rect class="a" width="22" height="1" transform="translate(-0.499 0.498)"/></g></g><g transform="translate(17.046 -89.479)"><g transform="translate(0 0)"><rect class="a" width="22" height="1" transform="translate(-0.499 0.497)"/></g></g><g transform="translate(17.046 -82.811)"><g transform="translate(0 0)"><rect class="a" width="22" height="3" transform="translate(-0.499 -0.172)"/></g></g><g transform="translate(17.046 -77.81)"><g transform="translate(0 0)"><rect class="a" width="22" height="4" transform="translate(-0.499 -0.173)"/></g></g><g transform="translate(0.754 -130.171)"><g transform="translate(0)"><path class="a" d="M119.047,48h-5.873a1.175,1.175,0,0,0,0,2.349h5.873a1.175,1.175,0,0,0,0-2.349Z" transform="translate(-112 -48)"/></g></g><g transform="translate(30.117 -130.171)"><path class="a" d="M319.047,48h-5.873a1.175,1.175,0,0,0,0,2.349h5.873a1.175,1.175,0,0,0,0-2.349Z" transform="translate(-312 -48)"/></g></g></svg>