<svg xmlns="http://www.w3.org/2000/svg" width="50" height="30" viewBox="0 0 50 30"><defs><clipPath id="zoqaa"><path fill="#fff" d="M0 8c0-4 4-8 8-8h34c4 0 8 4 8 8v14c0 4-4 8-8 8H8c-4 0-8-4-8-8z"/></clipPath></defs><g><g><g opacity=".85"><g opacity=".85"><g opacity=".85"><path fill="#f8fbfd" d="M31.63 13.701l-7.112-5.33c-.843-.632-2.045-.031-2.045 1.022v10.662c0 1.053 1.202 1.655 2.045 1.023l7.112-5.331a1.278 1.278 0 0 0 0-2.046z"/></g></g></g><g><path fill="none" stroke="#f8fbfd" stroke-miterlimit="50" stroke-width="2" d="M0 8c0-4 4-8 8-8h34c4 0 8 4 8 8v14c0 4-4 8-8 8H8c-4 0-8-4-8-8z" clip-path="url(&quot;#zoqaa&quot;)"/></g></g></g></svg>