<svg version="1.1" xmlns="http://www.w3.org/2000/svg" xmlns:xlink="http://www.w3.org/1999/xlink">
<defs>
<symbol id="icon-search" viewBox="0 0 34 32">
<title>search</title>
<path d="M14.33 3.454c5.252 0 9.521 4.273 9.521 9.523s-4.271 9.521-9.521 9.521c-5.256-0.006-9.514-4.265-9.521-9.52v-0.001c0-5.252 4.271-9.523 9.521-9.523zM31.784 29.156l-7.593-7.898c1.88-2.219 3.023-5.114 3.023-8.277 0-0.002 0-0.004 0-0.006v0c-0.009-7.111-5.772-12.873-12.882-12.881h-0.001c-7.112 0.008-12.875 5.771-12.883 12.882v0.001c0.009 7.111 5.772 12.873 12.882 12.881h0.001c0.010 0 0.021 0 0.033 0 2.753 0 5.302-0.873 7.385-2.357l-0.039 0.026 7.654 7.957c0.305 0.32 0.735 0.519 1.211 0.519 0.453 0 0.864-0.18 1.165-0.473l-0 0c0.317-0.306 0.514-0.735 0.514-1.21 0-0.452-0.179-0.863-0.469-1.166l0.001 0.001z"></path>
</symbol>
</defs>
</svg>
