<svg version="1.1" xmlns="http://www.w3.org/2000/svg" xmlns:xlink="http://www.w3.org/1999/xlink">
<defs>
<symbol id="icon-youtube" viewBox="0 0 32 32">
<title>youtube</title>
<path d="M14.362 19.028l5.085-2.929-5.085-2.929z"></path>
<path d="M25.674 20.814c-0.233 0.84-0.881 1.488-1.704 1.717l-0.017 0.004c-1.528 0.402-7.644 0.402-7.644 0.402s-6.098 0-7.642-0.418c-0.84-0.233-1.488-0.881-1.717-1.704l-0.004-0.017c-0.403-1.512-0.403-4.698-0.403-4.698s0-3.17 0.403-4.698c0.237-0.842 0.883-1.493 1.704-1.733l0.018-0.004c1.528-0.402 7.642-0.402 7.642-0.402s6.115 0 7.644 0.418c0.84 0.233 1.488 0.881 1.717 1.704l0.004 0.017c0.419 1.528 0.403 4.714 0.403 4.714s0 3.17-0.403 4.7zM16.309 0.468c-8.631 0-15.63 7-15.63 15.631s6.999 15.63 15.63 15.63c8.632 0 15.631-6.999 15.631-15.63s-6.999-15.631-15.631-15.631z"></path>
</symbol>
<symbol id="icon-soundcloud-logo" viewBox="0 0 32 32">
<title>soundcloud-logo</title>
<path d="M25.724 22.396h-9.255c-0.2-0.016-0.357-0.181-0.361-0.383v-10.597c0.002-0.195 0.070-0.295 0.321-0.393 0.633-0.253 1.366-0.4 2.133-0.4 3.070 0 5.592 2.348 5.867 5.346l0.002 0.023c0.381-0.164 0.825-0.26 1.291-0.26 1.843 0 3.338 1.494 3.338 3.338 0 0 0 0 0 0v-0c-0.001 1.836-1.489 3.324-3.325 3.324-0.004 0-0.009 0-0.013-0h0.001zM15.794 22.025v-0.003c-0.003 0.201-0.166 0.364-0.367 0.366h-0c-0.202-0.001-0.365-0.163-0.369-0.364v-0l-0.074-1.346-0.076-1.383 0.15-7.482v-0.038c0.002-0.203 0.167-0.367 0.37-0.367h0c0.201 0.004 0.363 0.166 0.367 0.366v0l0.162 7.521zM14.645 21.789l-0.014 0.274c-0.002 0.095-0.041 0.18-0.104 0.243v0c-0.062 0.062-0.148 0.101-0.243 0.101-0.189 0-0.342-0.153-0.342-0.342 0-0 0-0 0-0.001v0l-0.131-2.772 0.13-6.828v-0.066c0.003-0.189 0.156-0.341 0.345-0.342h0c0.188 0.004 0.34 0.155 0.344 0.343v0l0.145 6.895zM13.462 22.082v-0.002c-0.014 0.167-0.152 0.297-0.321 0.297s-0.306-0.129-0.321-0.293l-0-0.001-0.143-2.788 0.143-5.795c0.014-0.166 0.153-0.296 0.321-0.296s0.307 0.129 0.321 0.294l0 0.001 0.161 5.795zM12.303 22.1v-0.002c-0.002 0.164-0.134 0.296-0.298 0.297h-0c0 0 0 0 0 0-0.164 0-0.297-0.132-0.298-0.296v-0l-0.159-2.806 0.157-6.014c0.002-0.163 0.135-0.295 0.299-0.296h0c0.163 0 0.294 0.129 0.298 0.296l0.178 6.014zM11.153 22.124c-0.002 0.151-0.125 0.272-0.276 0.273h-0c-0.15-0.001-0.271-0.122-0.274-0.271v-0l-0.171-2.833 0.171-6.172c0.002-0.151 0.124-0.272 0.275-0.274h0c0.151 0.001 0.274 0.123 0.275 0.274v0l0.193 6.172zM10.010 22.143v-0.001c-0.002 0.137-0.114 0.248-0.251 0.249h-0c-0.137-0.001-0.249-0.111-0.252-0.248v-0l-0.185-2.85 0.185-5.971c0.002-0.138 0.114-0.249 0.251-0.25h0c0.136 0 0.246 0.11 0.252 0.25l0.209 5.97zM8.861 22.187v-0.001c-0.003 0.125-0.104 0.225-0.229 0.226h-0c-0.124-0.002-0.224-0.102-0.227-0.225v-0l-0.199-2.88 0.198-5.511c0.002-0.125 0.103-0.226 0.228-0.227h0c0.122 0 0.224 0.099 0.23 0.227l0.224 5.51zM7.753 22.189c-0.004 0.111-0.094 0.2-0.205 0.203h-0c-0.112-0.002-0.203-0.091-0.206-0.203v-0l-0.211-2.899 0.211-4.484c0.003-0.112 0.094-0.202 0.206-0.204h0c0.109 0 0.199 0.089 0.205 0.204l0.241 4.484zM6.637 22.189c-0.005 0.098-0.084 0.176-0.182 0.179h-0c-0.099-0.001-0.18-0.080-0.183-0.178v-0l-0.225-2.899 0.225-2.756c0.004-0.099 0.084-0.178 0.183-0.18h0c0.097 0 0.175 0.077 0.182 0.179l0.256 2.759zM5.53 22.165c-0.008 0.088-0.077 0.156-0.159 0.156-0.086-0.002-0.156-0.070-0.16-0.155v-0l-0.239-2.874 0.239-2.973c0.004-0.086 0.074-0.155 0.16-0.157h0c0.083 0 0.151 0.067 0.159 0.157l0.271 2.972zM4.433 22.077c-0.009 0.077-0.066 0.132-0.137 0.132-0.072 0-0.128-0.055-0.136-0.134l-0.254-2.786 0.254-2.892c0.007-0.077 0.064-0.132 0.136-0.132 0.071 0 0.128 0.055 0.137 0.132l0.287 2.892zM3.343 21.673c-0.010 0.064-0.056 0.11-0.114 0.11s-0.105-0.047-0.113-0.11l-0.267-2.383 0.267-2.439c0.008-0.063 0.055-0.11 0.113-0.11s0.104 0.045 0.114 0.11l0.302 2.439zM2.335 20.771c-0.009 0.062-0.054 0.105-0.109 0.105s-0.1-0.044-0.108-0.106l-0.199-1.482 0.199-1.507c0.007-0.062 0.052-0.106 0.108-0.106 0.055 0 0.099 0.044 0.109 0.106l0.235 1.508zM15.49 0.887c-8.632 0.001-15.63 7-15.63 15.631 0 8.633 6.998 15.631 15.63 15.631s15.631-6.998 15.631-15.631c0-8.632-7-15.63-15.631-15.63z"></path>
</symbol>
<symbol id="icon-facebook-logo-button" viewBox="0 0 32 32">
<title>facebook-logo-button</title>
<path d="M20.397 16.916h-2.542v9.064h-3.768v-9.065h-1.792v-3.203h1.792v-2.072c0-1.484 0.705-3.802 3.802-3.802l2.792 0.011v3.11h-2.026c-0.331 0-0.799 0.166-0.799 0.872v1.884h2.871zM16.51 0.733c-8.618 0.001-15.63 7.014-15.63 15.633 0 8.618 7.012 15.63 15.63 15.63s15.631-7.012 15.631-15.63c0-8.619-7.011-15.631-15.631-15.631z"></path>
</symbol>
</defs>
</svg>
