<svg version="1.1" xmlns="http://www.w3.org/2000/svg" xmlns:xlink="http://www.w3.org/1999/xlink">
<defs>
<symbol id="icon-phone-book" viewBox="0 0 32 32">
<title>phone-book</title>
<path d="M15.334 16.389c1.985 0 2.459-1.618 2.459-2.976s-1.101-2.459-2.459-2.459-2.459 1.101-2.459 2.459v0c0 1.358 0.653 2.976 2.459 2.976z"></path>
<path d="M15.677 16.73h-0.685c-1.348 0-3.369 1.234-3.369 2.758s-0.457 2.759 0.89 2.759h5.642c1.348 0 0.89-1.235 0.89-2.759s-2.021-2.758-3.369-2.758z"></path>
<path d="M24.476 24.009c0 0.593-0.482 1.074-1.075 1.074h-0.291c0.183-0.316 0.291-0.683 0.291-1.075v-15.684c0-0.391-0.107-0.759-0.291-1.075h0.291c0.594 0 1.075 0.482 1.075 1.075zM22.326 22.933v1.075c0 0.594-0.482 1.075-1.076 1.075h-10.754c-1.187-0.001-2.15-0.963-2.15-2.15v-13.534c0-1.188 0.963-2.15 2.15-2.15h10.755c0.594 0 1.075 0.482 1.075 1.075v14.608zM16.006 0.423c-8.587 0.001-15.548 6.963-15.548 15.551s6.961 15.549 15.548 15.549c8.588 0 15.55-6.962 15.55-15.549 0-8.589-6.962-15.55-15.55-15.55z"></path>
</symbol>
</defs>
</svg>
